<?xml version="1.0" encoding="UTF-8"?>
<svg id="Layer_1" xmlns="http://www.w3.org/2000/svg" version="1.1" viewBox="0 0 1028.58 226.75">
  <!-- Generator: Adobe Illustrator 29.7.0, SVG Export Plug-In . SVG Version: 2.1.1 Build 138)  -->
  <defs>
    <style>
      .st0 {
        fill: #fff;
      }

      .st1 {
        fill: #02a0fd;
      }
    </style>
  </defs>
  <g>
    <path class="st0" d="M387.76,180.32c-11.19,0-22.18-1.77-32.95-5.31-10.78-3.54-20.37-8.89-28.76-16.05s-15.18-16.05-20.37-26.66c-5.18-10.61-7.78-22.92-7.78-36.9s2.67-27.32,8.02-38.01c5.35-10.7,12.3-19.5,20.86-26.41,8.55-6.91,18.22-12.05,29.01-15.43,10.78-3.37,21.6-5.06,32.46-5.06,9.54,0,18.72,1.28,27.52,3.83,8.8,2.55,16.66,6.17,23.57,10.86,6.91,4.69,12.63,10.41,17.16,17.16,4.52,6.75,7.28,14.24,8.27,22.46h-44.43c-.66-3.29-2.06-6.17-4.2-8.64-2.14-2.47-4.73-4.52-7.78-6.17-3.05-1.64-6.42-2.92-10.12-3.83-3.7-.9-7.53-1.36-11.48-1.36-5.43,0-10.86.95-16.29,2.84-5.43,1.89-10.33,4.86-14.69,8.89-4.36,4.03-7.9,9.26-10.61,15.68-2.72,6.42-4.07,14.16-4.07,23.2s1.27,16.79,3.83,23.2c2.55,6.42,5.96,11.64,10.24,15.68,4.28,4.03,9.13,7,14.56,8.89,5.43,1.89,11.11,2.84,17.03,2.84,3.95,0,7.78-.45,11.48-1.36,3.7-.9,7.07-2.18,10.12-3.83,3.04-1.64,5.64-3.74,7.78-6.3,2.14-2.55,3.54-5.39,4.2-8.52h44.43c-1.48,7.9-4.53,15.18-9.13,21.85-4.61,6.66-10.33,12.43-17.16,17.28-6.83,4.86-14.61,8.6-23.33,11.23-8.72,2.63-17.86,3.95-27.4,3.95Z"/>
    <path class="st0" d="M567.47,147c.66,5.6,0,10.49-1.98,14.69-1.97,4.2-4.69,7.65-8.15,10.37-3.46,2.72-7.37,4.78-11.73,6.17-4.36,1.4-8.68,2.1-12.96,2.1-10.21,0-19.17-1.94-26.91-5.8-7.74-3.87-14.16-8.93-19.25-15.18-5.1-6.25-8.93-13.45-11.48-21.6-2.55-8.15-3.83-16.42-3.83-24.81s1.27-16.62,3.83-24.69c2.55-8.06,6.38-15.22,11.48-21.48,5.1-6.25,11.52-11.31,19.25-15.18,7.73-3.86,16.7-5.8,26.91-5.8s18.22,1.48,24.56,4.44c6.33,2.96,11.64,6.42,15.92,10.37l2.47-12.1h37.27v129.35h-37.52l-4.69-30.86h-3.21ZM513.16,112.93c0,4.44.7,8.6,2.1,12.47,1.4,3.87,3.37,7.24,5.92,10.12,2.55,2.88,5.68,5.15,9.38,6.79,3.7,1.65,7.86,2.47,12.47,2.47s8.97-.82,12.59-2.47c3.62-1.64,6.75-3.91,9.38-6.79,2.63-2.88,4.61-6.25,5.92-10.12,1.32-3.87,1.97-8.02,1.97-12.47s-.66-8.6-1.97-12.47c-1.32-3.86-3.29-7.24-5.92-10.12-2.63-2.88-5.76-5.14-9.38-6.79-3.62-1.64-7.82-2.47-12.59-2.47s-8.76.83-12.47,2.47c-3.7,1.65-6.83,3.91-9.38,6.79-2.55,2.88-4.53,6.26-5.92,10.12-1.4,3.87-2.1,8.02-2.1,12.47Z"/>
    <path class="st0" d="M626.71,48.5h37.52l4.69,30.61h3.21c-.33-5.92.7-11.02,3.09-15.3,2.38-4.28,5.51-7.73,9.38-10.37,3.87-2.63,8.15-4.57,12.84-5.8,4.69-1.23,9.09-1.85,13.21-1.85,9.21,0,17.28,1.85,24.19,5.55,6.91,3.7,12.67,8.6,17.28,14.69,4.61,6.09,8.06,13.04,10.37,20.86,2.3,7.82,3.46,15.84,3.46,24.07,0,8.89-1.28,17.49-3.83,25.8-2.55,8.31-6.34,15.68-11.36,22.09-5.02,6.42-11.23,11.6-18.64,15.55-7.41,3.95-15.96,5.92-25.67,5.92s-17.98-1.44-24.31-4.32c-6.34-2.88-11.64-6.29-15.92-10.24v55.54h-39.5V48.5ZM725.94,112.93c0-4.44-.7-8.6-2.1-12.47-1.4-3.86-3.37-7.24-5.92-10.12-2.55-2.88-5.68-5.14-9.38-6.79-3.7-1.64-7.86-2.47-12.47-2.47s-8.76.83-12.47,2.47c-3.7,1.65-6.87,3.91-9.5,6.79-2.63,2.88-4.61,6.26-5.92,10.12-1.32,3.87-1.97,8.02-1.97,12.47s.66,8.6,1.97,12.47c1.32,3.87,3.29,7.24,5.92,10.12,2.63,2.88,5.8,5.15,9.5,6.79,3.7,1.65,7.86,2.47,12.47,2.47s8.76-.82,12.47-2.47c3.7-1.64,6.83-3.91,9.38-6.79,2.55-2.88,4.52-6.25,5.92-10.12,1.4-3.87,2.1-8.02,2.1-12.47Z"/>
    <path class="st0" d="M776.3,5.06l39.99.25-.25,172.8-39.99-.25.25-172.8Z"/>
    <path class="st0" d="M830.11,21.35c0-4.94,1.97-9.26,5.92-12.96,3.95-3.7,9.13-5.55,15.55-5.55s11.81,1.85,15.67,5.55c3.87,3.7,5.8,8.02,5.8,12.96,0,5.27-1.94,9.75-5.8,13.45-3.87,3.7-9.09,5.55-15.67,5.55s-11.6-1.85-15.55-5.55c-3.95-3.7-5.92-8.18-5.92-13.45ZM831.35,48.5h39.99l-.25,129.35h-39.74V48.5Z"/>
    <path class="st0" d="M979.46,147c.66,5.6,0,10.49-1.97,14.69-1.98,4.2-4.69,7.65-8.15,10.37s-7.37,4.78-11.73,6.17c-4.36,1.4-8.68,2.1-12.96,2.1-10.21,0-19.17-1.94-26.91-5.8-7.74-3.87-14.16-8.93-19.25-15.18-5.1-6.25-8.93-13.45-11.48-21.6-2.55-8.15-3.83-16.42-3.83-24.81s1.27-16.62,3.83-24.69c2.55-8.06,6.38-15.22,11.48-21.48,5.1-6.25,11.52-11.31,19.25-15.18,7.73-3.86,16.7-5.8,26.91-5.8s18.22,1.48,24.56,4.44c6.33,2.96,11.64,6.42,15.92,10.37l2.47-12.1h37.27v129.35h-37.52l-4.69-30.86h-3.21ZM925.15,112.93c0,4.44.7,8.6,2.1,12.47,1.4,3.87,3.37,7.24,5.92,10.12,2.55,2.88,5.68,5.15,9.38,6.79,3.7,1.65,7.86,2.47,12.47,2.47s8.97-.82,12.59-2.47c3.62-1.64,6.75-3.91,9.38-6.79,2.63-2.88,4.61-6.25,5.92-10.12,1.32-3.87,1.97-8.02,1.97-12.47s-.66-8.6-1.97-12.47c-1.32-3.86-3.29-7.24-5.92-10.12-2.63-2.88-5.76-5.14-9.38-6.79-3.62-1.64-7.82-2.47-12.59-2.47s-8.76.83-12.47,2.47c-3.7,1.65-6.83,3.91-9.38,6.79-2.55,2.88-4.53,6.26-5.92,10.12-1.4,3.87-2.1,8.02-2.1,12.47Z"/>
  </g>
  <g>
    <path class="st0" d="M10.22,84.43c.13.16.27.32.41.47,5.26,5.6,7.75,6.41,11.01,2.6.15-.18.31-.36.48-.52L94.07,12.98c2.53-3.09.3-7.73-3.7-7.67h-24.9c-5.36.08-8.38,1.04-13.79,5.89-.25.22-1.3,1.41-1.54,1.64L13.16,48.26c-.44.42-2.96,2.86-5.38,5.28-3.45,3.45-4.38,8.23-4.71,11.52-.5,4.9.63,11.72,7.16,19.38Z"/>
    <path class="st0" d="M51.06,128.54l-11.12-12.53c-.42-.52-.81-1.07-1.1-1.68-1.31-2.76-1.02-6.04.78-8.54.21-.29.46-.56.71-.82L129.67,11.12c.12-.13.24-.26.35-.4,3.37-3.99,7.11-5.21,12.4-5.41h23.49c4.04-.16,6.38,4.53,3.81,7.66l-108.11,116.09c-2.8,3.42-8.11,3.15-10.56-.53Z"/>
    <path class="st1" d="M134.97,217.54l-12.94-13.14c-2.54-3.12-2.54-7.6.01-10.71l84.34-88.77c3.69-4.49,7.34-9.42,13.15-9.26l35.38.53c3.9.11,5.97,4.65,3.5,7.67l-104.77,113.16c-2.83,4-13.39,5.77-18.67.53Z"/>
    <path class="st0" d="M93.73,173.61l-11.14-12.62c-2.38-3-1.42-7.2.91-10.26.18-.24.39-.47.6-.69L213.85,12.18c3.71-4.53,9.32-7.06,15.17-6.86h22.3c3.91.13,5.95,4.71,3.44,7.71L103.92,173.74c-2.67,3.19-7.6,3.12-10.19-.13Z"/>
  </g>
</svg>